# xmcd
#
# Track frame offsets:
#	150
#	21768
#	34543
#	51688
#	66879
#	86072
#	102093
#	116973
#	136398
#	148210
#
# Disc length: 2183 seconds
# Revision: 3
# Processed by: cddbd v1.5.2PL0 Copyright (c) Steve Scherf et al.
# Submitted via: dBpowerAMP V12.0
#
DISCID=9508850a
DTITLE=Kenny Rogers - Love Songs
DYEAR=2003
DGENRE=Contemporary
TTITLE0=Have I Told You Lately That I Love You
TTITLE1=As Time Goes By
TTITLE2=Endless Love
TTITLE3=Unforgettable
TTITLE4=I Only Have Eyes For You
TTITLE5=Evergreen
TTITLE6=Misty
TTITLE7=She Believes In Me
TTITLE8=Always
TTITLE9=When I Fall In Love
EXTD=
EXTT0=
EXTT1=
EXTT2=
EXTT3=
EXTT4=
EXTT5=
EXTT6=
EXTT7=
EXTT8=
EXTT9=
PLAYORDER=
